<svg id="logosandtypes_com" xmlns="http://www.w3.org/2000/svg" viewBox="0 0 150 150.2"><path d="M0 .2h150v150H0V.2z" fill="none"/><g><path d="M41.4 89.9c4.3 4.4 9.5 7.9 15.3 10.3 11.6 4.8 24.7 4.8 36.3 0 5.8-2.4 11-5.9 15.5-10.3 4.4-4.4 7.8-9.5 10.2-15.3 4.7-11.7 4.7-24.9 0-36.6-10.1-24.2-37.8-35.6-62-25.6C45.1 17.3 35.9 26.5 31 38c-4.7 11.7-4.7 24.8 0 36.6 2.4 5.7 5.9 10.9 10.4 15.3zm16.8-52.6c4.1-4.9 10.2-7.7 16.7-7.6 6.6 0 12 2.6 16.5 7.6s6.7 11.4 6.7 19-2.2 14.1-6.6 19.1c-4.1 4.9-10.2 7.7-16.6 7.5-6.8 0-12.4-2.5-16.7-7.5S51.6 64 51.6 56.3c0-7.7 2.2-14 6.6-19z" fill="gray"/><path d="M138.9 109.5c-8.8 20.7-24.2 16.1-24.2 16.1-3.1-.1-10.1-2.9-16.3-5.7-6.3-2.8-11.9-5.6-11.9-5.6-10.4-4.8-21.3-8.5-32.5-11.1-3.5-.7-7.1-1.1-10.6-1.2h-4.1c-.6 0-1.1.1-1.7.1l-.8.1c-.6.1-1.2.1-1.8.2l-.8.1c-.6.1-1.1.2-1.6.3l-.8.2c-.4.1-.8.2-1.1.3l-1 .3-1 .3-.8.3c-.4.2-.8.3-1.2.5l-.8.3c-.3.1-.6.3-.9.5-.3.2-.6.3-.9.5l-.6.3c-.4.2-.7.4-1.1.7l-.5.3c-.4.2-.7.5-1 .8l-.4.3-.6.5-.3.3c-.3.3-.6.6-1 .9l-.3.3c-.3.3-.6.6-.9 1l-.2.3c-.3.3-.6.7-.8 1l-.2.2c-.2.2-.3.4-.4.6l-.2.3c-.2.3-.4.7-.6 1l-.2.4c-.2.3-.3.6-.5.9l-.2.4c-.1.2-.2.4-.3.7l-.3.6-.2.5c-.1.3-.2.5-.3.8l-.1.4c-.1.2-.2.5-.3.7l-.1.3-.3.9-.1.2c-.1.3-.2.6-.3 1v.1c-.5 1.9-.8 3.9-.9 5.9.4-2.5 1.3-5 2.5-7.2 6-10.2 18.8-6.2 18.8-6.2 10.4 2.4 28.2 11.8 37.5 16.9 3.7 2 6 3.4 6 3.4 8 4.2 17.2 4.8 23.2 4.7 2.1 0 4.3-.2 6.4-.5 4.6-.7 9-2.1 13-4.3l.2-.1c.5-.3 1.1-.6 1.6-.9.2-.1.4-.3.6-.4.4-.2.8-.5 1.1-.7.2-.1.3-.2.5-.4.4-.3.7-.5 1.1-.8l.2-.2c11.2-8.7 14.9-21.2 15.3-22.4z" fill="#00adef"/></g></svg>